<svg xmlns="http://www.w3.org/2000/svg" preserveAspectRatio="xMidYMid" width="16" height="13" viewBox="0 0 16 13"><path d="M14.913.004H1.087c-.6 0-1.09.498-1.09 1.107v10.785c0 .61.49 1.107 1.09 1.107h13.826c.6 0 1.092-.498 1.092-1.107V1.11c0-.608-.492-1.106-1.092-1.106zm0 11.357L11.19 7.588c-.213-.216-.558-.216-.77 0-.214.216-.214.567 0 .782l3.477 3.525H2.172L5.65 8.37c.213-.216.213-.567 0-.783-.214-.216-.56-.216-.772 0l-3.79 3.843V1.923l5.936 6.02c.31.31.72.484 1.158.484.438 0 .486-.173.794-.485l5.937-6.02v9.44zM1.83 1.11h12.34L8.205 7.16c-.204.207-.203.207-.408 0L1.83 1.11z" id="path-1" class="cls-2" fill-rule="evenodd"/></svg>