<svg xmlns="http://www.w3.org/2000/svg" preserveAspectRatio="xMidYMid" width="13" height="16" viewBox="0 0 13 16"><path d="M12.878 5.037L8.538.204C8.418.07 8.276 0 8.082 0H1.818C.82 0 .005.803.005 1.787v12.42c0 .983.816 1.788 1.813 1.788h9.372c.997 0 1.813-.805 1.813-1.79V5.49c.01-.187-.01-.325-.125-.453zM8.65 1.947l2.43 2.706H9.376c-.393 0-.726-.327-.726-.715v-1.99zm2.54 12.976H1.818c-.393 0-.725-.328-.725-.716V1.787c0-.387.332-.715.725-.715h5.744v2.866c0 .984.816 1.788 1.814 1.788h2.54v8.48c0 .39-.333.717-.726.717z" id="path-1" class="cls-2" fill-rule="evenodd"/></svg>